<?xml version="1.0" standalone="no"?>
<!DOCTYPE svg PUBLIC "-//W3C//DTD SVG 20010904//EN"
 "http://www.w3.org/TR/2001/REC-SVG-20010904/DTD/svg10.dtd">
<svg version="1.0" xmlns="http://www.w3.org/2000/svg"
 width="1254.000000pt" height="1254.000000pt" viewBox="0 0 1254.000000 1254.000000"
 preserveAspectRatio="xMidYMid meet">

<g transform="translate(0.000000,1254.000000) scale(0.100000,-0.100000)"
fill="#000000" stroke="none">
<path d="M3990 12075 c-300 -67 -484 -248 -571 -560 -30 -110 -38 -359 -15
-493 25 -146 22 -198 -24 -338 -22 -68 -40 -129 -40 -135 0 -7 -22 -38 -48
-68 -170 -198 -406 -550 -517 -771 -128 -254 -192 -494 -156 -584 6 -17 11
-15 52 20 151 131 400 457 476 623 59 130 99 301 82 351 -13 34 -19 36 -61 14
-16 -9 -29 -11 -27 -6 2 6 40 57 84 114 l80 103 6 -92 c17 -236 69 -384 229
-650 68 -113 121 -231 139 -314 35 -158 61 -672 39 -779 -7 -34 -7 -34 6 -10
28 52 134 389 203 645 68 254 27 440 -141 640 -163 193 -206 361 -154 598 l11
52 15 -35 c8 -19 23 -78 33 -130 11 -52 27 -120 36 -150 l16 -55 13 73 c16 88
41 144 106 228 61 80 62 93 5 87 -38 -5 -48 -1 -93 35 -69 55 -137 148 -195
267 -94 192 -128 414 -95 613 33 195 92 325 196 432 196 201 516 236 829 89
150 -70 273 -161 427 -314 156 -155 221 -232 408 -477 146 -192 281 -335 302
-317 14 11 39 2 83 -32 12 -10 39 -21 60 -25 20 -3 60 -13 90 -21 51 -15 115
-14 154 2 12 5 17 2 17 -10 0 -14 3 -15 13 -6 16 12 72 139 65 146 -2 2 -28
-2 -58 -10 -30 -8 -65 -15 -76 -15 -39 0 -178 51 -300 110 -116 56 -124 62
-186 137 -123 149 -278 362 -278 382 0 45 98 67 340 76 80 3 205 11 278 17
144 13 149 17 62 56 l-35 16 55 7 c147 19 455 4 669 -32 184 -31 261 -53 408
-118 99 -44 133 -55 133 -44 0 19 34 14 175 -27 278 -81 733 -289 954 -438
117 -79 261 -187 261 -197 0 -3 -13 -2 -30 2 -45 9 -39 -18 16 -66 48 -42 74
-52 74 -28 0 7 6 22 14 33 14 19 15 19 40 -5 32 -30 33 -39 4 -34 -13 2 -29
-1 -37 -6 -23 -15 -2 -32 102 -84 51 -26 108 -63 127 -83 30 -31 32 -35 13
-29 -60 18 1 -59 149 -188 37 -31 81 -76 99 -98 l32 -41 -69 50 c-77 57 -124
79 -124 59 0 -35 97 -160 245 -317 64 -68 128 -138 142 -157 28 -36 42 -38 23
-3 -6 11 -10 26 -8 32 2 6 42 -52 88 -128 129 -215 163 -265 172 -251 19 30
10 48 -132 292 -26 44 -47 88 -47 98 0 30 -45 115 -63 120 -10 3 -26 19 -35
37 -9 17 -38 58 -64 91 -26 32 -61 83 -76 112 -15 28 -57 87 -92 131 -35 43
-62 81 -59 83 3 3 28 -9 57 -26 28 -18 52 -31 54 -29 1 2 9 17 18 33 8 17 39
59 67 95 88 109 146 205 179 295 37 104 62 238 54 290 -11 67 14 30 28 -42 39
-196 1 -432 -101 -621 l-41 -75 46 -47 c25 -25 45 -51 45 -58 0 -7 9 -12 20
-12 24 0 26 13 5 30 -8 7 -15 20 -15 29 0 9 -9 27 -20 41 -25 33 -25 34 10 92
41 67 87 183 112 287 32 126 31 318 -1 421 -32 105 -65 165 -123 227 -178 187
-439 140 -823 -148 -136 -102 -189 -138 -229 -154 -33 -14 -35 -13 -127 44
-525 322 -1165 549 -1774 628 -202 26 -581 23 -800 -6 -193 -26 -377 -62 -481
-95 l-77 -25 -109 104 c-230 221 -435 345 -666 406 -101 27 -266 33 -352 14z
m5055 -935 c22 -11 48 -32 57 -48 l17 -29 -113 -37 -114 -38 -161 3 c-88 2
-161 6 -161 9 0 10 100 71 166 102 129 60 236 74 309 38z"/>
<path d="M4036 11724 c-229 -55 -371 -263 -369 -544 0 -184 65 -357 189 -511
107 -132 125 -166 159 -296 12 -46 12 -61 -1 -110 -17 -66 -22 -73 -34 -53 -7
11 -10 8 -14 -11 -17 -80 -16 -99 10 -180 15 -46 28 -79 30 -74 1 6 6 33 9 60
l7 50 29 -79 c16 -43 34 -99 40 -125 7 -25 16 -50 21 -56 7 -7 8 -2 3 13 -8
26 3 102 14 102 12 0 55 -229 54 -289 l0 -54 19 24 19 24 -5 -35 c-2 -19 -10
-75 -16 -125 -6 -49 -16 -112 -21 -138 -6 -27 -9 -50 -6 -53 5 -6 44 45 81
106 23 40 26 41 20 15 -3 -16 -12 -52 -20 -79 -8 -27 -12 -51 -10 -53 1 -2 23
15 47 37 40 36 59 48 59 35 0 -2 -20 -66 -45 -142 -25 -75 -44 -144 -43 -152
3 -14 68 70 226 289 33 46 59 86 57 88 -6 7 -80 -30 -102 -50 -41 -38 -37 -10
11 84 40 77 44 89 23 70 l-25 -24 -4 24 c-3 20 -8 17 -48 -34 -25 -32 -48 -58
-51 -58 -4 0 2 48 13 108 13 77 35 146 76 244 31 76 60 134 65 129 4 -4 12
-30 16 -57 l7 -49 32 62 c18 35 42 78 53 95 l21 33 -4 -32 c-5 -36 2 -42 22
-18 7 8 16 15 20 15 12 0 0 -79 -21 -134 l-19 -50 77 77 c42 43 78 75 80 73 2
-2 -15 -41 -37 -87 -31 -61 -37 -79 -23 -68 11 8 51 38 89 66 38 29 73 53 77
53 5 0 -9 -21 -31 -47 -44 -53 -123 -175 -117 -181 2 -2 20 15 41 37 20 23 67
65 103 93 99 77 123 101 110 109 -11 6 8 26 116 121 22 19 78 60 125 90 47 31
99 70 115 88 l30 32 -39 -16 c-22 -9 -45 -21 -52 -27 -18 -15 -312 -159 -358
-175 l-38 -14 47 55 c25 30 43 55 38 55 -5 0 -47 -14 -92 -30 -46 -17 -86 -29
-88 -26 -2 2 35 32 84 66 156 111 222 174 161 154 -13 -4 -38 -10 -56 -15 -29
-6 -32 -5 -27 12 4 10 3 19 -2 19 -5 0 -52 -22 -106 -50 -121 -62 -149 -65
-87 -10 l45 41 -92 -7 c-51 -3 -93 -3 -93 0 0 3 18 15 40 26 23 12 59 38 82
58 l41 37 -109 5 -109 5 120 48 c66 27 140 60 165 75 l45 27 -60 7 c-33 3 -91
2 -129 -4 -38 -5 -102 -7 -143 -3 l-74 7 88 50 c70 40 223 144 223 151 0 10
-141 4 -191 -8 -36 -9 -85 -15 -109 -13 l-44 3 58 31 59 31 -119 28 -119 28
45 19 c107 44 169 73 170 79 0 3 -26 11 -57 18 -32 7 -121 33 -198 59 -122 40
-136 47 -109 52 39 8 56 19 49 30 -3 5 16 20 42 34 86 43 149 56 272 56 70 0
110 4 101 9 -8 5 -71 26 -140 47 -99 30 -146 38 -227 42 -104 4 -121 11 -81
33 20 11 18 13 -36 33 l-59 22 117 11 c123 11 221 2 315 -32 57 -20 63 -13 14
18 -225 141 -298 185 -358 213 l-70 33 55 0 c93 0 198 -17 263 -44 34 -15 69
-29 77 -32 33 -12 -79 78 -150 121 -120 73 -220 90 -344 60z"/>
<path d="M4381 11712 c19 -16 72 -49 119 -72 113 -57 159 -89 253 -179 201
-192 367 -454 465 -733 58 -163 106 -236 188 -284 24 -14 44 -28 44 -30 0 -13
-51 -102 -64 -113 -9 -8 -16 -18 -16 -23 0 -14 94 40 142 81 23 20 40 29 36
21 -15 -41 -19 -60 -10 -60 12 0 240 217 253 241 8 17 7 18 -13 10 -127 -49
-200 -49 -266 -2 -55 41 -87 83 -277 366 -92 138 -196 286 -230 330 -82 105
-251 267 -347 333 -84 57 -224 127 -277 137 l-34 7 34 -30z"/>
<path d="M6360 11531 c-57 -8 -70 -17 -70 -45 0 -37 72 -101 169 -151 100 -51
402 -93 470 -66 48 20 47 39 -6 90 -90 87 -252 153 -406 166 -39 3 -81 7 -92
9 -11 2 -40 0 -65 -3z"/>
<path d="M5717 11391 c-87 -30 -116 -73 -102 -148 9 -49 61 -98 148 -141 95
-46 158 -60 262 -57 141 3 245 60 245 135 0 38 -90 136 -159 173 -100 55 -294
74 -394 38z"/>
<path d="M7260 11311 c-10 -7 -11 -13 -5 -19 15 -14 214 -173 265 -212 l45
-34 -30 33 -30 33 30 -8 c17 -4 41 -11 55 -16 41 -15 179 -38 195 -32 24 10
17 30 -22 66 -104 93 -450 223 -503 189z"/>
<path d="M7176 11201 c-11 -17 54 -100 120 -154 38 -31 101 -75 139 -98 97
-57 226 -121 232 -116 2 3 -5 23 -16 44 -39 77 -193 199 -349 277 -95 48 -120
57 -126 47z"/>
<path d="M6657 11164 c-58 -31 -41 -101 55 -221 53 -67 155 -163 173 -163 6 0
46 46 88 101 88 113 90 125 35 179 -71 72 -289 136 -351 104z"/>
<path d="M7897 11114 c-12 -12 12 -42 64 -80 65 -48 392 -244 398 -238 2 2 -9
22 -25 45 -36 53 -133 130 -246 198 -120 72 -173 92 -191 75z"/>
<path d="M4437 11091 c-20 -4 -40 -10 -42 -13 -3 -3 33 -15 79 -28 92 -24 142
-23 200 7 l31 16 -28 8 c-45 12 -198 19 -240 10z"/>
<path d="M7630 10986 c0 -2 8 -10 18 -17 15 -13 16 -12 3 4 -13 16 -21 21 -21
13z"/>
<path d="M7728 10974 c-28 -28 39 -100 135 -147 106 -52 248 -99 278 -93 34 7
56 -9 195 -142 67 -64 141 -125 169 -139 28 -14 78 -45 111 -69 70 -50 169
-98 183 -89 32 19 -108 192 -226 278 -140 101 -188 134 -238 162 -27 16 -77
45 -110 65 -95 59 -202 110 -295 142 -88 30 -189 46 -202 32z"/>
<path d="M6375 10958 c-40 -22 -68 -54 -91 -103 -33 -70 -35 -247 -3 -333 12
-31 26 -74 32 -94 6 -21 14 -38 17 -38 16 0 202 194 220 230 33 65 37 129 11
183 -27 56 -94 133 -132 152 -33 18 -29 17 -54 3z"/>
<path d="M7692 10930 c7 -11 17 -20 22 -20 5 0 1 9 -9 20 -10 11 -20 20 -22
20 -2 0 2 -9 9 -20z"/>
<path d="M7186 10932 c-2 -4 -9 -35 -16 -69 -6 -35 -20 -82 -30 -105 -11 -24
-20 -53 -20 -66 0 -53 119 -240 168 -262 38 -17 38 -18 -4 -188 -24 -94 -25
-104 -11 -126 15 -22 14 -27 -4 -62 -27 -55 -24 -79 22 -171 39 -78 98 -143
163 -179 51 -29 130 45 166 156 32 100 22 145 -67 292 l-34 57 27 40 c20 31
25 47 19 68 -11 45 -72 138 -100 153 -42 22 -56 68 -43 138 10 54 9 63 -14
113 -49 107 -198 249 -222 211z"/>
<path d="M4656 10902 c-70 -24 -76 -28 -50 -33 63 -14 119 -9 173 16 30 14 52
27 50 29 -2 2 -24 6 -49 9 -34 5 -64 0 -124 -21z"/>
<path d="M7776 10808 c67 -57 206 -199 220 -223 7 -11 15 -17 19 -13 15 14
-248 278 -277 278 -6 0 11 -19 38 -42z"/>
<path d="M7650 10691 c0 -18 66 -96 81 -96 10 0 14 12 14 38 0 36 -3 40 -40
53 -47 16 -55 17 -55 5z"/>
<path d="M8040 10579 c0 -29 27 -70 134 -212 100 -132 113 -135 103 -26 -7 75
-40 133 -104 180 -117 87 -133 94 -133 58z"/>
<path d="M7923 10574 c-4 -12 14 -36 62 -83 93 -90 101 -49 10 57 -39 44 -62
53 -72 26z"/>
<path d="M6782 10549 c-73 -36 -118 -108 -137 -219 -5 -31 -1 -42 42 -94 29
-36 66 -69 93 -83 41 -20 50 -21 95 -10 85 20 165 119 165 206 0 58 -70 206
-102 215 -47 12 -114 6 -156 -15z"/>
<path d="M7833 10493 c11 -68 71 -175 134 -240 73 -76 87 -79 78 -20 -13 76
-120 259 -166 283 -44 22 -52 18 -46 -23z"/>
<path d="M8060 10403 c0 -23 115 -151 126 -141 10 10 -30 68 -80 118 -40 38
-46 41 -46 23z"/>
<path d="M8321 10406 c-19 -22 2 -59 90 -161 67 -78 91 -98 136 -117 47 -19
60 -30 85 -75 17 -29 34 -53 39 -53 20 0 7 67 -25 126 -19 34 -40 82 -46 106
-15 57 -62 103 -127 128 -30 11 -72 29 -93 40 -47 24 -45 24 -59 6z"/>
<path d="M6055 10351 c-23 -10 -68 -43 -100 -72 -33 -30 -84 -74 -113 -98 -90
-74 -131 -190 -80 -225 57 -40 149 -7 261 94 l57 52 0 60 c0 51 5 69 31 110
23 35 29 55 25 73 -8 30 -26 31 -81 6z"/>
<path d="M8110 10220 c0 -18 98 -174 125 -200 14 -13 25 -20 25 -17 0 22 -86
195 -104 209 -24 20 -46 23 -46 8z"/>
<path d="M7811 10197 c-25 -25 1 -136 42 -182 9 -11 31 -37 49 -58 38 -46 68
-47 80 -2 18 66 -34 194 -91 224 -44 24 -68 30 -80 18z"/>
<path d="M8440 10119 c0 -27 82 -139 101 -139 11 0 -7 58 -27 89 -30 45 -74
75 -74 50z"/>
<path d="M9420 10123 c0 -5 5 -14 12 -21 9 -9 2 -12 -31 -12 l-43 0 16 -25
c21 -33 20 -44 -4 -38 -11 3 -20 2 -20 -1 0 -10 90 -49 97 -42 3 2 -10 23 -28
45 -18 23 -30 43 -28 45 3 3 24 0 48 -5 64 -14 69 -7 22 30 -22 18 -41 29 -41
24z"/>
<path d="M8383 10055 c4 -22 7 -73 7 -113 0 -71 1 -74 39 -115 38 -39 41 -41
57 -25 16 16 19 15 43 -17 14 -19 41 -59 60 -89 18 -31 35 -56 37 -56 18 0
-70 143 -128 210 -67 76 -63 89 5 18 74 -77 186 -250 249 -388 23 -52 44 -87
46 -78 4 22 -47 124 -138 273 -40 66 -88 147 -107 180 -40 69 -139 210 -161
228 -13 10 -14 7 -9 -28z"/>
<path d="M6282 10030 c-33 -17 -75 -47 -91 -66 -37 -41 -101 -165 -101 -194 0
-30 67 -98 110 -111 63 -19 129 11 228 105 56 53 72 84 72 143 0 79 -65 153
-133 153 -13 0 -51 -14 -85 -30z"/>
<path d="M8760 10028 c0 -21 26 -98 53 -156 16 -35 128 -147 165 -165 48 -23
52 -1 13 68 l-31 55 30 0 c23 0 30 5 30 18 0 24 -53 97 -82 115 -123 73 -148
87 -162 87 -10 0 -16 -9 -16 -22z"/>
<path d="M5514 9924 c-93 -63 -156 -122 -189 -177 -19 -32 -35 -63 -35 -68 0
-22 51 -6 115 37 39 25 102 61 140 79 73 33 105 66 105 108 0 12 -5 28 -12 35
-21 21 -82 14 -124 -14z"/>
<path d="M8234 9886 c20 -27 44 -63 53 -80 18 -35 22 -37 -68 36 -25 21 -51
38 -57 38 -22 0 -18 -52 8 -97 30 -52 114 -153 127 -153 7 0 14 29 18 76 11
116 -7 157 -89 210 -29 18 -29 18 8 -30z"/>
<path d="M6900 9899 c-56 -25 -77 -44 -101 -91 -24 -47 -24 -91 -1 -126 11
-15 31 -47 46 -71 26 -41 30 -43 63 -38 59 10 106 41 136 89 39 62 45 114 19
164 -24 47 -36 58 -83 78 -32 13 -39 13 -79 -5z"/>
<path d="M8780 9636 c-17 -33 -8 -62 53 -174 63 -115 122 -185 137 -162 16 25
11 51 -20 107 -37 64 -37 68 -4 47 22 -15 27 -15 35 -3 25 40 -2 90 -85 153
-40 31 -80 56 -88 56 -8 0 -20 -11 -28 -24z"/>
<path d="M7871 9594 c-80 -91 -119 -212 -107 -330 11 -111 97 -407 154 -527
45 -99 95 -145 220 -204 102 -48 184 -105 201 -140 6 -14 16 -20 25 -17 18 7
22 -1 40 -69 8 -31 27 -71 41 -90 l27 -33 34 31 c19 17 28 31 21 33 -22 6 -87
35 -87 39 0 18 24 44 36 39 18 -7 80 18 107 42 19 16 17 17 -39 24 -69 8 -154
30 -154 39 0 4 20 31 43 61 42 50 67 90 67 103 0 3 -22 -6 -48 -19 -26 -13
-69 -27 -95 -31 -54 -8 -53 -11 -33 85 8 36 12 67 10 69 -2 2 -19 -10 -38 -27
-46 -40 -91 -49 -142 -27 -53 22 -90 60 -110 111 -17 45 -17 43 2 301 7 102
-8 286 -32 373 -9 30 -29 80 -46 110 -17 30 -37 65 -43 78 -12 23 -13 22 -54
-24z"/>
<path d="M9355 9600 c4 -19 31 -89 62 -155 87 -189 130 -303 148 -394 21 -99
16 -210 -9 -261 -24 -47 -79 -130 -87 -130 -4 0 -6 39 -6 88 0 95 -16 151 -35
117 -7 -11 -7 -39 -2 -74 13 -92 7 -161 -20 -255 -48 -165 -30 -389 49 -597
20 -51 85 -194 144 -318 269 -560 561 -1260 561 -1345 0 -19 -4 -22 -31 -18
-23 3 -58 -8 -132 -44 l-102 -49 -105 0 c-100 0 -109 2 -190 39 -150 67 -210
86 -281 86 -80 0 -158 -25 -252 -82 -58 -35 -73 -40 -108 -35 -52 7 -99 50
-142 131 -39 73 -87 126 -115 126 -11 0 -32 -14 -47 -32 -24 -28 -27 -39 -23
-84 10 -115 121 -283 245 -370 215 -150 264 -202 350 -372 42 -82 47 -101 46
-151 -2 -100 -56 -184 -171 -269 -199 -147 -547 -298 -847 -367 -94 -22 -147
-28 -242 -29 -67 -1 -124 2 -128 6 -15 15 60 131 107 166 46 35 53 52 21 52
-21 0 -83 30 -83 41 0 5 14 16 32 25 28 15 34 15 57 1 23 -13 31 -13 71 2 43
16 47 16 81 -3 35 -20 36 -20 69 0 44 25 46 37 13 59 -26 17 -30 17 -72 2 -42
-15 -45 -15 -72 5 -22 17 -36 19 -69 14 -33 -5 -46 -2 -68 15 -22 17 -35 19
-70 14 -49 -7 -86 10 -97 45 -5 17 -12 19 -44 14 -49 -8 -81 9 -81 41 0 21 -5
25 -28 25 -15 0 -47 12 -70 27 -38 25 -41 29 -25 40 23 17 58 16 94 -3 21 -10
43 -13 68 -9 29 5 43 1 64 -15 25 -20 31 -21 75 -9 46 11 50 10 89 -15 l41
-27 60 20 61 21 45 -32 45 -31 57 19 c96 32 98 37 22 75 -67 33 -67 33 -115
17 -48 -15 -48 -15 -108 18 -56 30 -63 32 -106 22 -42 -10 -50 -8 -92 17 -38
21 -54 26 -84 20 -31 -5 -44 -1 -73 20 -27 20 -45 25 -81 24 -39 -2 -53 3 -94
34 -35 27 -58 37 -84 37 -30 0 -50 10 -103 54 -36 30 -79 71 -94 92 l-28 36
23 19 c31 26 54 24 90 -7 27 -22 36 -24 76 -19 41 7 48 4 80 -24 39 -34 42
-35 99 -21 36 8 43 6 85 -26 38 -29 51 -34 76 -29 88 19 99 18 139 -14 45 -36
48 -36 130 -14 l63 16 42 -33 41 -34 52 17 c49 15 52 15 76 -3 30 -24 51 -25
99 -5 36 15 37 15 68 -15 35 -34 56 -37 109 -15 45 19 46 39 4 65 -38 23 -70
25 -113 6 -27 -11 -33 -10 -73 21 -42 32 -44 32 -77 19 -32 -14 -35 -13 -72
15 -42 31 -72 35 -118 15 -27 -12 -33 -11 -60 9 -67 49 -89 56 -150 43 -44 -9
-62 -8 -77 1 -10 6 -44 26 -76 42 -48 27 -61 30 -89 21 -27 -8 -37 -6 -64 14
-22 16 -46 24 -73 24 -29 0 -47 7 -67 26 -38 36 -99 46 -217 34 -350 -36 -477
-39 -797 -21 -353 20 -590 5 -899 -55 -129 -25 -320 -74 -313 -80 1 -2 52 6
112 17 61 10 182 26 270 34 88 8 198 20 245 25 47 6 157 13 245 16 l160 7 -30
-33 -30 -33 82 7 c45 3 90 9 100 13 13 4 15 3 8 -5 -5 -6 -56 -31 -113 -55
-57 -25 -105 -47 -107 -49 -3 -3 31 -12 76 -22 45 -10 79 -20 76 -23 -3 -2
-81 -18 -174 -33 -160 -28 -377 -77 -435 -99 -20 -8 -38 -5 -79 10 -68 26
-333 94 -429 110 -47 8 -182 13 -360 14 -157 0 -297 4 -312 9 -16 5 -28 4 -28
-1 0 -14 112 -137 192 -209 86 -78 256 -191 434 -289 70 -38 151 -85 181 -104
l55 -34 -164 -84 c-89 -46 -174 -93 -188 -104 -14 -11 38 12 115 50 77 38 171
79 208 92 l69 24 54 -58 c60 -64 121 -180 130 -248 l6 -45 -68 -64 c-38 -35
-75 -72 -83 -83 -12 -17 -12 -18 6 -9 11 6 25 18 32 26 7 8 35 29 63 47 40 26
52 30 58 18 10 -15 15 -66 31 -289 11 -169 36 -312 75 -433 26 -81 109 -275
124 -291 4 -4 11 18 15 50 18 168 64 304 123 368 15 16 76 71 136 122 66 57
142 136 194 200 295 370 663 651 1128 863 82 37 157 70 167 74 66 25 -62 -60
-248 -163 -400 -221 -617 -375 -864 -615 -103 -100 -199 -207 -171 -190 8 4
55 35 104 67 48 32 89 58 91 58 1 0 -12 -30 -30 -68 -68 -141 -141 -413 -166
-614 -17 -142 -7 -453 20 -603 44 -246 118 -494 246 -820 141 -360 253 -652
270 -703 50 -155 4 41 -165 698 -104 404 -125 548 -125 830 1 178 5 235 23
332 58 308 201 619 392 853 90 110 75 109 179 3 89 -90 103 -112 80 -120 -7
-2 6 -9 27 -16 21 -6 52 -22 69 -36 l29 -23 -26 -51 -26 -51 83 6 c135 10 170
-17 146 -112 -6 -24 -11 -46 -11 -48 0 -3 33 8 73 24 97 38 111 37 132 -7 13
-28 15 -49 10 -92 l-7 -56 36 28 c49 37 163 89 180 83 9 -4 22 -40 32 -85 l18
-80 51 42 c53 45 110 86 118 86 3 0 17 -36 32 -80 15 -44 28 -80 29 -80 2 0
22 27 45 60 23 32 46 62 50 65 5 3 28 -24 50 -60 23 -36 46 -63 50 -61 5 3 11
18 14 33 7 34 61 111 84 120 12 5 33 -11 73 -55 l56 -62 13 50 c7 28 21 60 31
73 l19 22 48 -47 48 -47 18 59 c10 36 23 60 31 60 8 0 21 12 31 26 l17 26 37
-36 c20 -20 39 -36 41 -36 3 0 6 19 8 42 1 23 12 57 24 76 21 35 41 38 91 17
14 -6 17 -2 17 24 0 59 44 114 65 81 15 -24 30 -9 27 27 -3 45 30 108 53 99
11 -4 15 2 15 23 0 46 20 93 37 86 12 -4 14 1 10 21 -2 14 2 49 9 78 8 28 14
99 14 157 0 118 6 131 69 143 58 11 151 79 151 110 0 3 -19 -6 -42 -19 -24
-14 -55 -25 -70 -25 -24 0 -28 4 -28 30 0 37 -28 114 -93 255 -32 68 -51 124
-51 146 -1 52 65 175 130 248 30 33 94 89 142 124 94 69 122 98 211 222 62 86
158 181 261 259 l65 48 3 -53 c4 -70 -1 -87 -42 -135 -56 -65 -59 -127 -4 -77
17 16 20 16 35 0 15 -15 16 -23 4 -79 -7 -34 -19 -75 -27 -90 -16 -31 -89 -82
-107 -75 -7 3 -26 -6 -44 -19 -20 -16 -33 -20 -35 -12 -2 6 -12 9 -20 5 -23
-8 -38 -40 -28 -57 7 -12 12 -11 30 5 20 18 21 18 35 -1 11 -16 17 -17 33 -7
13 8 23 8 30 1 7 -7 17 -6 31 1 19 11 21 9 21 -17 0 -38 -49 -131 -81 -155
-15 -11 -40 -20 -55 -21 -16 -1 -35 -5 -42 -10 -8 -5 -23 -4 -35 3 -33 18
-102 1 -102 -24 0 -13 8 -21 23 -23 12 -2 22 -8 22 -14 0 -6 10 -8 25 -4 18 5
27 2 31 -9 4 -8 17 -15 30 -15 18 0 24 -6 24 -20 0 -57 -75 -135 -120 -126
-16 3 -36 -1 -49 -10 -18 -13 -21 -13 -21 -1 0 8 -7 20 -16 27 -12 11 -18 11
-30 -2 -13 -13 -14 -20 -4 -38 6 -12 17 -19 25 -16 25 9 27 -57 4 -119 -11
-31 -19 -59 -16 -61 3 -3 33 31 67 75 53 71 63 80 80 71 11 -6 58 -69 106
-140 93 -140 146 -259 185 -415 12 -49 24 -84 26 -78 3 7 -10 65 -26 130 -37
140 -113 304 -203 435 l-62 90 30 55 c16 30 37 61 46 70 15 14 20 13 47 -7 45
-31 234 -261 289 -349 25 -42 70 -121 99 -176 29 -55 52 -95 53 -89 0 23 -141
286 -208 386 -39 58 -110 147 -158 197 l-86 91 42 65 c23 36 47 65 52 65 15 0
131 -84 226 -163 93 -77 184 -180 263 -295 64 -95 81 -113 44 -47 -51 92 -179
259 -256 336 -43 43 -120 107 -172 144 l-96 67 20 50 c10 27 19 61 19 76 0 15
11 44 25 64 l25 37 88 -40 c121 -56 265 -155 368 -252 48 -45 82 -73 76 -62
-19 38 -187 191 -267 245 -43 29 -119 73 -168 98 -88 43 -89 44 -83 75 3 18
11 81 18 140 14 124 14 124 116 114 54 -5 55 -4 27 9 -16 7 -51 13 -76 14
l-46 0 -17 90 -17 91 25 32 c40 54 49 96 35 174 -16 91 -110 365 -204 593 -86
207 -90 230 -55 344 11 36 19 68 18 73 -1 4 13 30 30 58 39 60 106 260 127
380 21 123 19 276 -5 398 -20 99 -55 188 -75 194 -6 2 -16 -20 -23 -49 -14
-59 -20 -68 -32 -48 -12 19 -12 18 -44 -67 -39 -102 -92 -180 -188 -273 -46
-44 -78 -80 -71 -80 46 0 212 83 213 107 0 6 16 21 36 32 30 18 35 26 30 45
-3 14 0 28 7 35 12 9 20 38 41 136 1 5 18 -22 37 -60 31 -64 34 -78 34 -160
l0 -90 -32 -3 c-32 -3 -33 -4 -33 -51 0 -27 7 -68 15 -91 8 -23 15 -58 15 -77
0 -41 -33 -93 -59 -93 -10 0 -26 -9 -37 -21 -15 -17 -19 -38 -20 -117 -2 -72
-8 -113 -24 -160 -13 -34 -24 -61 -26 -60 -6 7 -273 580 -294 633 -28 70 -33
153 -10 165 8 4 39 18 68 31 118 51 191 180 207 367 l7 80 38 11 c61 18 73 14
103 -36 33 -55 43 -52 22 7 -24 69 -21 82 40 125 30 22 55 43 55 46 0 3 -19 5
-42 5 -43 -1 -43 -1 -49 39 l-6 40 -8 -32 c-4 -18 -13 -33 -19 -34 -6 0 -43 0
-82 1 -136 2 -297 -41 -385 -105 -73 -52 -62 -19 44 132 96 138 120 285 76
464 -36 143 -140 337 -245 454 l-35 40 6 -35z m376 -1112 c17 -33 6 -154 -21
-215 -39 -90 -138 -162 -210 -151 -36 5 -52 47 -58 152 l-5 90 28 -22 c15 -12
40 -22 56 -22 35 0 87 43 106 87 7 19 24 38 37 43 42 16 39 29 -5 27 -24 -1
-44 3 -46 10 -5 13 17 20 69 22 29 1 40 -4 49 -21z m-211 -17 c0 -6 -4 -13
-10 -16 -5 -3 -10 1 -10 9 0 9 5 16 10 16 6 0 10 -4 10 -9z m-74 -2312 c100
-60 135 -132 114 -232 -13 -62 -74 -164 -115 -191 -22 -14 -20 -9 14 44 75
116 75 209 0 294 -41 47 -145 106 -185 106 -13 0 -26 5 -30 11 -5 9 14 10 69
7 64 -4 85 -10 133 -39z m-2378 -536 c100 -3 180 -8 178 -10 -12 -12 -155 -24
-406 -33 -445 -16 -488 -21 -460 -55 9 -11 10 -19 3 -23 -6 -4 -12 -15 -14
-26 -4 -20 -63 -45 -228 -96 l-104 -32 -139 53 -139 52 -157 -53 c-86 -29
-214 -77 -284 -107 -70 -29 -131 -53 -135 -53 -38 0 246 132 410 191 73 26
130 40 175 43 37 2 162 19 277 37 162 26 213 38 225 52 38 46 416 74 798 60z
m227 -122 c-16 -14 -179 -48 -340 -71 -190 -27 -487 -86 -528 -105 -32 -15
-32 -15 20 -9 43 5 53 3 61 -12 7 -12 7 -25 1 -36 -7 -13 -4 -20 11 -28 11 -6
18 -16 14 -21 -7 -12 -111 -59 -131 -59 -7 0 -57 23 -110 51 l-97 51 -55 -12
c-82 -18 -372 -113 -570 -187 -95 -35 -178 -62 -185 -60 -6 3 36 27 94 54 295
140 756 287 1140 363 298 59 704 108 675 81z m125 -76 c0 -16 -207 -88 -477
-166 -190 -54 -284 -89 -380 -141 -49 -27 -60 -37 -51 -46 9 -9 9 -12 1 -12
-7 0 -15 5 -18 10 -13 20 -64 9 -173 -39 -204 -90 -392 -203 -612 -370 -58
-44 -107 -77 -110 -74 -18 18 333 289 489 378 127 71 420 205 451 205 5 0 76
24 157 54 81 29 173 59 203 65 64 15 198 51 320 86 47 14 110 32 140 39 30 8
56 15 58 15 1 1 2 -1 2 -4z m90 -154 c-8 -5 -123 -30 -255 -55 -261 -50 -363
-78 -499 -137 -81 -35 -134 -66 -97 -57 12 3 144 -152 136 -160 -2 -2 -45 29
-96 69 l-93 72 -64 -33 c-97 -51 -262 -183 -411 -331 -140 -139 -162 -148 -43
-18 129 142 315 304 432 377 47 30 184 95 300 143 100 42 348 99 544 124 127
16 167 18 146 6z m310 -186 c0 -2 -40 -31 -88 -64 -193 -129 -405 -322 -564
-513 -45 -53 -84 -96 -86 -93 -2 2 24 41 58 87 164 218 324 380 480 483 109
73 200 118 200 100z m1282 -245 c94 -27 179 -138 194 -257 14 -117 -39 -292
-115 -375 -16 -18 -43 -49 -60 -68 -18 -20 -31 -29 -31 -20 0 8 -19 -4 -45
-30 -36 -35 -45 -40 -45 -25 0 15 -10 9 -48 -28 -26 -26 -51 -47 -55 -47 -4 0
-7 12 -7 28 0 26 -1 26 -44 -20 -24 -27 -46 -48 -49 -48 -2 0 -17 18 -32 40
-15 22 -31 40 -34 40 -4 0 -15 -16 -25 -34 -10 -19 -30 -45 -43 -58 l-25 -23
-54 59 -55 58 -47 -46 c-26 -25 -57 -53 -69 -61 -21 -14 -22 -13 -34 22 -6 21
-18 50 -26 66 l-14 28 -70 -56 c-39 -30 -74 -55 -79 -55 -8 0 -20 74 -20 126
0 19 -2 34 -5 34 -2 0 -37 -22 -77 -49 -40 -27 -82 -51 -93 -53 -19 -3 -20 2
-16 71 l3 74 -28 -20 c-33 -23 -99 -57 -130 -67 -20 -6 -20 -4 -12 56 4 35 11
71 14 82 3 10 2 17 -2 15 -5 -2 -42 -21 -83 -42 -40 -21 -75 -36 -77 -34 -2 2
5 30 16 61 l20 58 -23 -7 c-64 -20 -121 -34 -124 -31 -2 2 12 29 32 60 l36 56
-72 -7 -73 -6 63 73 c122 142 144 153 491 245 96 26 291 80 433 121 142 41
293 80 335 88 93 17 253 20 304 6z"/>
<path d="M6336 5533 c-11 -11 -6 -23 9 -23 8 0 15 4 15 9 0 13 -16 22 -24 14z"/>
<path d="M8920 4735 l-23 -25 19 -36 c25 -47 31 -50 53 -23 15 19 21 21 34 11
11 -10 17 -9 28 4 12 15 16 13 42 -17 l29 -34 -6 40 c-6 41 -29 80 -59 99 -13
8 -20 6 -30 -8 -12 -16 -14 -16 -26 -2 -19 22 -34 20 -61 -9z"/>
<path d="M8740 4720 l-35 -30 26 -23 c14 -13 30 -31 35 -40 8 -15 14 -11 42
25 38 49 39 62 10 82 -31 22 -39 20 -78 -14z"/>
<path d="M8608 4669 c-10 -5 -29 -29 -43 -52 l-25 -43 21 -41 c34 -68 47 -74
81 -33 42 49 52 79 34 99 -7 9 -17 26 -20 38 -10 31 -28 43 -48 32z"/>
<path d="M8475 4599 c-4 -6 -5 -13 -2 -16 7 -7 27 6 27 18 0 12 -17 12 -25 -2z"/>
<path d="M9006 4581 c-3 -5 1 -14 9 -21 12 -10 15 -10 15 3 0 19 -16 31 -24
18z"/>
<path d="M9032 4500 c-11 -28 -4 -46 28 -75 18 -16 23 -17 30 -5 15 24 12 38
-19 72 l-30 33 -9 -25z"/>
<path d="M8890 4461 c-5 -11 -10 -42 -10 -70 0 -39 4 -51 15 -51 8 0 15 -5 15
-11 0 -20 28 10 35 38 6 25 -22 113 -37 113 -4 0 -12 -9 -18 -19z"/>
<path d="M8343 4440 c-28 -16 -59 -40 -67 -52 -15 -21 -15 -24 3 -42 19 -18
20 -18 53 2 53 33 70 56 66 91 l-3 31 -52 -30z"/>
<path d="M8610 4365 c-21 -22 -24 -36 -24 -100 -1 -41 2 -75 6 -75 8 0 61 67
77 98 10 19 10 30 1 53 -20 46 -34 52 -60 24z"/>
<path d="M8303 4224 c-21 -21 -23 -28 -12 -35 8 -5 16 -9 19 -9 6 0 40 54 40
64 0 14 -23 4 -47 -20z"/>
<path d="M5578 9591 c-131 -42 -224 -128 -258 -238 -25 -83 -25 -95 4 -122 38
-35 84 -37 154 -6 33 15 65 24 70 21 5 -3 12 -19 15 -35 8 -36 32 -61 60 -61
31 0 119 53 151 90 44 53 76 114 82 162 11 81 -47 158 -145 193 -54 19 -62 18
-133 -4z"/>
<path d="M9160 9500 c0 -79 20 -148 39 -136 18 11 53 -46 104 -171 81 -198
107 -226 107 -115 0 43 -7 71 -29 114 -16 31 -34 80 -40 108 -13 61 -38 112
-103 208 -65 96 -78 95 -78 -8z"/>
<path d="M8396 9548 c-32 -50 -28 -127 9 -158 12 -10 15 -6 20 17 4 15 13 50
21 77 14 44 14 50 -2 67 -22 25 -30 24 -48 -3z"/>
<path d="M3283 9505 c-112 -48 -232 -235 -311 -485 -80 -251 -82 -386 -8 -618
63 -199 142 -348 174 -328 20 12 69 118 87 186 27 106 45 151 91 230 50 86 86
185 108 297 26 136 28 175 12 303 -45 355 -49 373 -86 410 -23 23 -25 24 -67
5z"/>
<path d="M6505 9486 c-68 -32 -135 -105 -135 -148 0 -43 42 -160 73 -207 14
-21 35 -60 47 -88 12 -29 30 -59 40 -68 16 -15 20 -13 62 34 50 57 115 219
123 306 7 70 -20 143 -64 172 -43 29 -83 29 -146 -1z"/>
<path d="M7425 9474 c-46 -50 -51 -163 -10 -260 29 -70 103 -180 154 -227 43
-41 180 -137 195 -137 2 0 -32 75 -77 168 l-82 167 -1 106 c0 126 -10 146 -84
184 -61 31 -65 31 -95 -1z"/>
<path d="M8493 9423 c11 -95 26 -132 72 -179 24 -24 49 -53 55 -64 19 -36 29
-12 26 61 -4 64 -9 78 -54 152 -41 67 -55 83 -77 85 l-28 4 6 -59z"/>
<path d="M4969 9460 c-48 -14 -146 -71 -206 -119 -112 -90 -206 -273 -219
-425 -6 -66 15 -205 38 -253 7 -15 23 -29 35 -31 40 -6 117 41 188 114 119
122 166 221 185 385 6 52 17 132 25 179 8 47 17 102 20 123 5 34 4 37 -17 36
-13 0 -35 -4 -49 -9z"/>
<path d="M7050 9409 c-118 -73 -124 -218 -12 -294 29 -20 49 -25 99 -25 74 0
113 -13 113 -38 0 -19 51 -72 87 -91 25 -12 156 -42 162 -36 5 6 -88 135 -98
135 -4 0 -31 24 -60 53 -37 36 -69 84 -106 157 -76 151 -117 181 -185 139z"/>
<path d="M9625 9384 c1 -22 5 -53 9 -71 7 -28 11 -30 26 -20 15 9 22 7 39 -14
11 -13 20 -21 21 -16 0 10 -55 105 -78 136 l-19 23 2 -38z"/>
<path d="M8990 9280 c1 -30 6 -64 13 -76 24 -42 121 -113 135 -99 12 11 -69
152 -110 192 l-38 37 0 -54z"/>
<path d="M8306 9247 c-7 -38 2 -97 15 -97 4 0 14 18 20 40 9 30 9 46 1 65 -16
34 -29 31 -36 -8z"/>
<path d="M8758 9226 c-17 -39 25 -114 81 -143 24 -13 46 -21 49 -19 2 3 -5 33
-17 68 -15 46 -30 71 -55 91 -42 33 -44 33 -58 3z"/>
<path d="M8860 9204 c0 -9 13 -46 28 -82 16 -37 37 -89 47 -117 27 -73 30 -37
4 42 -26 78 -66 173 -74 173 -3 0 -5 -7 -5 -16z"/>
<path d="M9750 9191 c0 -5 7 -25 15 -44 16 -39 20 -77 7 -77 -4 0 -21 23 -37
50 -16 28 -33 50 -37 50 -10 0 -11 5 13 -96 22 -93 20 -139 -7 -216 -8 -23
-12 -43 -10 -45 2 -3 22 8 45 22 22 15 44 24 50 21 16 -10 51 35 63 81 6 24
13 43 17 42 3 0 23 -21 44 -45 20 -25 37 -44 37 -41 0 22 -46 128 -74 169 -64
97 -126 160 -126 129z"/>
<path d="M6047 9169 c-103 -54 -149 -225 -86 -328 21 -35 69 -60 158 -82 l54
-13 28 34 c36 43 69 128 69 179 0 94 -52 190 -117 217 -43 18 -60 17 -106 -7z"/>
<path d="M8382 9118 c-11 -18 -29 -61 -41 -96 -19 -57 -20 -69 -9 -122 6 -33
18 -62 24 -64 17 -7 62 47 87 103 22 51 19 128 -7 180 -21 39 -30 39 -54 -1z"/>
<path d="M9205 9010 c-4 -6 -7 -31 -7 -55 0 -33 8 -56 33 -92 43 -65 70 -93
81 -87 23 14 -28 181 -69 226 -18 20 -29 23 -38 8z"/>
<path d="M9056 8945 c-21 -56 7 -169 52 -209 21 -18 22 -18 32 8 14 37 2 105
-29 162 -28 52 -45 64 -55 39z"/>
<path d="M6664 8900 c3 -31 13 -77 22 -103 9 -27 14 -50 12 -52 -3 -3 -24 5
-49 17 -96 47 -209 31 -250 -36 -42 -69 -37 -133 13 -165 18 -11 55 -36 83
-56 60 -42 93 -44 126 -9 13 15 46 44 72 65 63 50 108 52 196 8 68 -34 75 -42
162 -203 62 -114 151 -216 231 -264 96 -57 160 -74 304 -82 117 -5 137 -9 187
-34 84 -43 125 -81 138 -129 7 -26 30 -62 63 -98 60 -65 82 -123 79 -209 -2
-69 -37 -168 -87 -242 -60 -91 -218 -233 -347 -313 -62 -38 -126 -81 -142 -94
-23 -19 -31 -21 -37 -11 -13 22 -61 -4 -147 -81 -105 -93 -193 -139 -265 -139
-43 0 -59 -4 -74 -21 -19 -22 -19 -22 11 -16 133 24 290 64 340 86 33 15 103
55 155 88 52 33 128 79 168 102 173 101 320 228 400 347 60 90 118 211 133
277 10 47 14 55 22 41 16 -29 21 -196 7 -255 -20 -90 -111 -266 -181 -348 -65
-77 -54 -83 17 -9 181 188 294 410 294 573 0 25 3 45 6 45 9 0 45 -47 76 -99
35 -58 35 -49 -2 82 -16 59 -30 110 -30 114 0 3 12 -4 26 -18 65 -60 -89 192
-196 321 -44 52 -199 298 -241 382 -16 33 -33 87 -39 126 -13 92 -13 93 -68
124 -61 34 -159 63 -307 90 -101 18 -160 22 -375 23 -328 2 -354 11 -447 143
-66 94 -66 95 -59 32z m652 -326 c40 -3 77 -10 84 -14 21 -13 1 -30 -36 -30
-35 0 -35 -1 -29 -32 16 -70 45 -111 93 -129 42 -16 103 13 141 66 32 45 79
66 116 51 37 -14 41 -95 9 -173 -22 -52 -84 -114 -139 -139 -167 -78 -361 53
-421 285 -8 34 -13 75 -9 91 5 24 12 29 43 33 20 2 46 3 57 1 11 -1 52 -6 91
-10z m308 -55 c-7 -12 -51 -11 -59 1 -12 20 5 29 35 18 17 -5 27 -14 24 -19z
m291 -499 c31 -19 49 -48 65 -102 10 -32 -5 -39 -15 -7 -4 11 -27 45 -51 75
-48 59 -48 64 1 34z"/>
<path d="M8771 8913 c-22 -48 -25 -117 -7 -133 15 -12 20 -10 43 12 20 20 25
36 26 75 0 27 -3 54 -7 61 -13 21 -42 13 -55 -15z"/>
<path d="M5313 8901 c-101 -35 -161 -91 -211 -199 -38 -83 -36 -146 10 -242
40 -86 120 -169 182 -190 74 -24 207 16 248 74 13 17 42 56 67 86 67 83 85
130 84 225 0 132 -38 182 -180 240 -73 29 -128 31 -200 6z"/>
<path d="M8971 8912 c-1 -20 78 -383 91 -415 18 -47 20 -23 3 49 -17 71 -33
156 -41 210 -5 36 -52 175 -53 156z"/>
<path d="M8557 8848 c-20 -34 -40 -77 -43 -96 -6 -33 12 -122 26 -122 4 0 23
16 43 36 46 47 71 111 64 165 -5 37 -30 79 -47 79 -3 0 -23 -28 -43 -62z"/>
<path d="M8886 8894 c-12 -30 -6 -100 10 -123 23 -32 36 -14 36 48 -1 71 -30
118 -46 75z"/>
<path d="M2372 8796 c-110 -183 -197 -392 -292 -698 -45 -146 -102 -395 -125
-548 -19 -129 -31 -453 -20 -575 8 -85 9 -88 17 -50 35 155 76 307 128 480 72
237 129 468 165 660 26 139 136 612 175 754 12 40 19 75 17 77 -1 2 -31 -43
-65 -100z"/>
<path d="M4142 8763 c-116 -115 -183 -235 -227 -407 -29 -114 -31 -164 -11
-313 8 -59 17 -135 21 -168 9 -84 23 -133 52 -183 l25 -44 29 28 c15 15 65 80
109 145 169 248 205 385 145 549 -13 35 -17 85 -18 230 -2 188 -10 230 -42
230 -7 0 -45 -30 -83 -67z"/>
<path d="M9160 8685 c-19 -39 -20 -49 -10 -81 11 -33 34 -53 46 -41 3 3 8 24
11 46 6 41 23 58 23 21 0 -20 50 -110 61 -110 29 0 1 110 -34 135 -11 8 -24
12 -28 9 -4 -2 -13 12 -19 31 -6 19 -15 35 -20 35 -4 0 -18 -20 -30 -45z"/>
<path d="M8698 8652 c-48 -100 -48 -150 1 -116 23 16 61 84 61 108 0 18 -21
66 -29 66 -3 0 -18 -26 -33 -58z"/>
<path d="M8936 8678 c-20 -28 -20 -57 0 -83 15 -20 15 -20 35 4 21 26 25 71 7
89 -17 17 -25 15 -42 -10z"/>
<path d="M2613 8583 c-42 -47 -131 -228 -171 -348 -42 -127 -88 -317 -113
-470 -25 -153 -22 -343 5 -435 16 -52 36 -133 91 -362 27 -111 85 -242 142
-320 39 -52 102 -108 122 -108 20 0 51 70 76 175 28 119 56 189 104 259 97
141 131 421 81 666 -60 295 -180 346 -245 105 -13 -48 -15 -89 -10 -205 5
-127 4 -155 -14 -224 -12 -43 -31 -94 -43 -114 l-21 -35 -18 22 c-18 22 -50
145 -69 264 -19 119 36 369 74 338 12 -10 20 -3 45 41 50 85 63 141 68 289 5
136 -9 360 -28 451 -13 59 -29 61 -76 11z"/>
<path d="M8757 8482 c-18 -20 -23 -62 -8 -62 13 0 51 50 51 66 0 20 -24 17
-43 -4z"/>
<path d="M5970 8468 c-82 -44 -133 -136 -146 -268 -12 -110 39 -211 130 -255
72 -35 168 -45 214 -21 38 20 127 107 146 144 20 39 30 171 16 220 -8 32 -25
54 -78 98 -115 98 -204 123 -282 82z"/>
<path d="M6746 8368 c-10 -58 -14 -62 -47 -34 -66 56 -138 40 -160 -35 -12
-37 -11 -45 10 -84 49 -93 113 -116 171 -60 l30 28 40 -18 c29 -13 46 -15 61
-9 17 8 28 4 54 -21 19 -17 41 -44 49 -60 14 -26 14 -31 -1 -47 -23 -25 -7
-66 34 -91 30 -17 34 -17 63 -2 31 16 33 16 59 -9 16 -15 39 -26 55 -26 15 0
46 -11 69 -24 43 -26 148 -50 250 -59 31 -3 55 -2 52 3 -3 4 -47 24 -97 45
-214 85 -330 162 -460 308 -117 131 -215 237 -221 237 -2 0 -7 -19 -11 -42z"/>
<path d="M8914 8367 c-15 -31 -15 -36 0 -65 21 -40 29 -40 51 1 16 31 16 35 1
65 -21 41 -32 40 -52 -1z"/>
<path d="M9230 8378 c0 -31 52 -158 65 -158 14 -1 19 39 7 64 -5 12 -19 42
-30 69 -23 50 -42 61 -42 25z"/>
<path d="M9100 8330 c0 -34 29 -92 42 -87 17 6 13 53 -7 83 -19 29 -35 31 -35
4z"/>
<path d="M4705 8304 c-68 -35 -107 -91 -165 -239 -38 -96 -44 -122 -47 -205
-4 -93 -4 -96 29 -150 43 -72 113 -120 174 -120 59 0 149 35 195 77 42 38 121
188 138 263 15 66 13 160 -4 211 -20 57 -77 134 -118 159 -41 25 -157 28 -202
4z"/>
<path d="M8715 8244 c-18 -18 -19 -46 -3 -62 16 -16 48 13 48 43 0 29 -25 39
-45 19z"/>
<path d="M9145 8191 c-6 -10 21 -89 37 -105 4 -6 8 17 8 52 0 55 -2 62 -19 62
-11 0 -22 -4 -26 -9z"/>
<path d="M3582 8078 c-185 -493 -218 -892 -99 -1209 54 -144 162 -324 250
-418 35 -36 172 -151 181 -151 3 0 6 33 6 73 0 39 9 124 20 187 18 98 19 128
10 206 -19 174 -76 309 -181 428 -66 75 -86 114 -127 246 l-26 85 3 318 c1
174 0 317 -2 317 -2 0 -18 -37 -35 -82z"/>
<path d="M6562 7873 c-19 -9 -41 -31 -50 -50 -14 -30 -14 -37 1 -86 28 -88
164 -207 236 -207 15 0 47 10 71 23 97 49 91 111 -23 233 -97 104 -156 126
-235 87z"/>
<path d="M5440 7861 c-52 -17 -89 -42 -133 -91 -84 -93 -88 -171 -17 -291 87
-147 171 -209 283 -209 71 0 104 16 151 73 73 89 82 148 36 241 -97 195 -226
307 -320 277z"/>
<path d="M9859 7684 c35 -33 68 -60 72 -62 13 -5 23 49 12 67 -5 8 -22 24 -37
35 -22 17 -30 18 -47 8 -15 -10 -25 -10 -42 -1 -12 6 7 -15 42 -47z"/>
<path d="M7278 7705 c-10 -22 -8 -29 13 -51 13 -14 40 -34 61 -45 32 -16 37
-17 48 -3 11 12 4 24 -42 69 -31 30 -58 55 -62 55 -3 0 -12 -11 -18 -25z"/>
<path d="M7060 7678 c-36 -59 -20 -102 48 -137 19 -10 30 -9 59 6 50 24 61 45
43 78 -17 32 -87 85 -112 85 -10 0 -27 -15 -38 -32z"/>
<path d="M6090 7633 c-54 -27 -55 -29 -58 -76 -2 -38 3 -59 29 -107 35 -67
104 -136 144 -146 61 -15 145 38 162 103 8 35 -23 123 -59 168 -32 38 -83 68
-133 79 -22 5 -45 -1 -85 -21z"/>
<path d="M7518 7477 c-82 -46 -125 -111 -91 -139 12 -10 23 -8 57 10 38 21
126 118 126 140 0 8 -27 25 -33 21 -1 -1 -28 -15 -59 -32z"/>
<path d="M4276 7488 c-53 -11 -88 -39 -129 -101 -84 -126 -96 -240 -37 -358
58 -118 131 -196 223 -240 107 -50 194 -33 275 55 69 75 72 123 17 301 -26 86
-54 121 -112 144 -41 16 -66 46 -87 102 -22 61 -34 76 -76 92 -25 10 -47 11
-74 5z"/>
<path d="M6974 7441 c-27 -12 -64 -58 -64 -82 0 -23 49 -72 96 -94 71 -33 169
1 190 68 16 52 -156 135 -222 108z"/>
<path d="M7662 7323 c-61 -65 -126 -149 -135 -175 -14 -39 34 -27 95 24 25 22
128 181 128 200 0 24 -40 1 -88 -49z"/>
<path d="M4955 7301 c-51 -23 -91 -70 -105 -122 -27 -100 47 -241 155 -294 53
-26 146 -27 199 -1 46 23 96 96 96 141 0 106 -180 295 -280 295 -14 0 -43 -9
-65 -19z"/>
<path d="M6537 7290 c-68 -53 -68 -120 -1 -198 44 -52 81 -72 133 -72 50 0 96
37 112 91 11 36 10 42 -17 86 -34 55 -103 102 -160 110 -30 4 -45 0 -67 -17z"/>
<path d="M8448 7273 c-26 -30 -29 -59 -12 -102 18 -46 28 -48 57 -9 19 25 19
28 2 77 -18 56 -24 60 -47 34z"/>
<path d="M7382 7208 c-17 -17 -15 -28 6 -28 19 0 42 18 42 32 0 12 -35 9 -48
-4z"/>
<path d="M7755 7200 c-15 -16 -16 -23 -6 -33 10 -9 16 -7 32 12 10 13 19 27
19 32 0 16 -26 9 -45 -11z"/>
<path d="M7245 7102 c-37 -38 -38 -39 -69 -24 -43 22 -116 21 -149 -1 -15 -10
-35 -33 -44 -52 -14 -29 -14 -36 -2 -51 17 -22 99 -74 115 -74 6 0 32 18 57
40 33 29 59 43 96 50 61 11 98 29 130 64 l24 25 -33 31 c-45 42 -77 40 -125
-8z"/>
<path d="M5903 7045 c-83 -41 -113 -75 -113 -127 1 -61 29 -115 89 -171 93
-87 200 -113 303 -74 138 53 140 188 4 298 -119 96 -196 116 -283 74z"/>
<path d="M8509 7007 c-41 -32 -41 -74 0 -112 21 -18 24 -18 49 -3 15 9 31 28
37 43 8 24 6 31 -23 56 -36 32 -40 33 -63 16z"/>
<path d="M3150 6789 c-20 -133 -17 -307 7 -499 12 -91 24 -208 28 -260 11
-155 38 -262 99 -386 66 -133 153 -251 252 -343 69 -63 185 -141 210 -141 19
0 60 98 93 222 52 192 42 300 -42 462 -41 80 -68 110 -249 281 -123 116 -261
365 -333 600 -20 66 -40 129 -44 139 -5 13 -12 -12 -21 -75z"/>
<path d="M6586 6859 c-32 -25 -34 -68 -5 -115 18 -30 46 -54 63 -54 3 0 15 18
26 40 28 55 26 91 -8 123 -34 32 -42 33 -76 6z"/>
<path d="M8549 6787 c-19 -12 -44 -42 -56 -66 -20 -40 -21 -46 -7 -72 8 -16
23 -33 34 -39 17 -9 25 -6 46 20 30 35 42 37 75 11 13 -10 40 -23 60 -30 21
-7 62 -30 93 -51 31 -22 56 -34 56 -27 0 6 -25 53 -56 104 -39 65 -71 103
-108 132 -60 47 -89 51 -137 18z"/>
<path d="M2196 6754 c-89 -88 -122 -485 -66 -779 43 -218 105 -367 249 -590
144 -224 180 -273 286 -383 106 -111 177 -167 200 -158 8 3 26 29 41 58 15 29
44 78 65 109 22 30 44 71 49 90 23 80 6 208 -65 482 -45 177 -82 279 -150 421
-72 152 -105 199 -160 231 -38 23 -47 25 -67 14 -13 -6 -27 -18 -31 -26 -13
-22 -41 1 -90 74 -53 80 -129 231 -182 360 -43 106 -55 121 -79 97z m299 -840
c35 -23 112 -140 135 -206 21 -61 28 -182 10 -193 -31 -19 -140 109 -172 205
-22 65 -30 159 -16 193 9 21 12 21 43 1z"/>
<path d="M7693 6750 c-71 -23 -202 -104 -274 -169 -53 -48 -158 -171 -145
-171 3 0 24 13 48 29 24 16 91 55 151 87 146 78 288 199 275 233 -2 5 -26 1
-55 -9z"/>
<path d="M5405 6710 c-11 -4 -33 -22 -49 -39 -44 -46 -48 -121 -10 -190 35
-66 100 -126 172 -159 47 -22 71 -27 139 -27 78 0 83 1 139 40 67 46 75 72 46
138 -28 62 -144 171 -226 212 -57 29 -79 35 -130 34 -33 0 -70 -4 -81 -9z"/>
<path d="M6898 6581 l-33 -29 24 -44 c42 -76 42 -76 100 -8 28 34 51 66 51 71
0 13 -56 39 -84 39 -14 0 -40 -13 -58 -29z"/>
<path d="M6600 6579 c-32 -13 -60 -39 -60 -55 0 -7 17 -25 37 -39 91 -61 235
-6 161 62 -47 43 -87 52 -138 32z"/>
<path d="M4665 6509 c-68 -22 -86 -34 -105 -68 -17 -33 -31 -231 -19 -275 21
-77 150 -177 278 -216 113 -35 226 -21 310 40 43 31 114 130 103 142 -4 3 -50
0 -102 -8 -52 -8 -104 -13 -115 -11 -11 1 21 8 70 15 172 24 155 16 155 70 0
86 -34 136 -159 230 -59 45 -121 86 -135 92 -47 17 -214 11 -281 -11z"/>
<path d="M4104 6416 c-4 -9 -4 -52 -2 -94 6 -102 35 -167 102 -231 55 -51 150
-106 166 -96 27 17 -4 154 -50 220 -16 22 -69 80 -119 129 -73 73 -91 87 -97
72z"/>
<path d="M7404 6368 c-16 -12 -51 -42 -79 -68 -27 -26 -67 -57 -88 -70 -24
-14 -36 -28 -33 -36 7 -18 10 -18 -81 12 -221 72 -522 136 -748 159 -136 14
-237 14 -223 0 2 -2 73 -11 158 -19 165 -17 322 -47 506 -96 147 -39 336 -106
349 -123 20 -27 55 -37 128 -37 55 0 78 -4 87 -16 25 -29 49 -36 85 -24 30 10
38 8 64 -11 27 -20 33 -20 79 -9 49 13 51 13 92 -18 23 -17 47 -29 54 -27 6 2
35 11 64 20 l53 17 45 -42 c37 -34 51 -41 72 -37 42 9 102 36 102 47 0 15 -62
81 -84 90 -13 5 -39 1 -71 -11 -27 -11 -53 -19 -57 -19 -4 0 -28 18 -53 40
-52 45 -60 47 -112 25 -36 -15 -38 -15 -72 13 -54 43 -59 44 -96 32 -33 -11
-38 -10 -71 19 -21 19 -46 31 -62 31 -16 0 -36 6 -46 13 -17 13 -15 17 29 53
27 21 67 56 89 76 l41 37 -46 1 c-32 0 -55 -7 -75 -22z"/>
<path d="M1855 6154 c-22 -501 71 -1060 256 -1531 151 -384 405 -784 645
-1014 58 -56 136 -109 159 -109 3 0 16 21 28 48 31 66 30 270 -1 385 -52 191
-154 368 -359 628 -217 274 -337 464 -452 717 -141 312 -220 600 -251 917 -7
66 -13 121 -15 123 -1 2 -6 -72 -10 -164z"/>
<path d="M6205 6228 c-43 -23 -65 -51 -54 -65 6 -7 19 -13 27 -13 9 0 12 -3 7
-8 -6 -4 -77 -5 -160 -1 -200 9 -634 9 -715 -1 -54 -6 -42 -7 75 -9 268 -3
609 -27 600 -42 -8 -11 54 -49 79 -49 11 0 32 12 48 27 36 35 105 37 288 11
185 -26 186 -26 103 -53 -62 -19 -203 -100 -203 -116 0 -3 157 -9 350 -13 354
-8 660 -1 660 15 0 5 -4 9 -8 9 -5 0 -40 29 -80 64 -82 75 -102 83 -136 61
-24 -16 -31 -16 -113 3 -78 18 -175 37 -298 58 -22 4 -67 8 -100 9 -33 1 -106
6 -163 10 -87 6 -101 9 -91 21 10 12 4 22 -27 54 -41 42 -56 46 -89 28z m510
-153 c104 -20 375 -96 375 -106 0 -11 -456 93 -490 112 -24 14 25 11 115 -6z"/>
<path d="M8184 6006 c-48 -21 -50 -34 -13 -72 22 -23 42 -34 61 -34 34 0 98
25 98 38 0 16 -79 82 -98 82 -9 -1 -31 -7 -48 -14z"/>
<path d="M5619 5951 c-27 -26 -49 -55 -49 -64 0 -41 127 -31 172 13 17 17 26
35 22 44 -6 16 -67 56 -86 56 -6 0 -33 -22 -59 -49z"/>
<path d="M8423 5935 c-18 -8 -33 -18 -33 -23 0 -12 67 -72 81 -72 5 0 26 7 46
15 32 13 34 17 22 33 -20 26 -63 61 -74 61 -5 0 -25 -6 -42 -14z"/>
<path d="M8660 5552 l-23 -19 31 -22 c30 -21 33 -21 62 -6 36 19 37 29 8 49
-29 21 -51 20 -78 -2z"/>
<path d="M8378 5324 c-16 -8 -28 -18 -28 -22 0 -11 65 -52 83 -52 22 0 87 31
87 42 0 14 -64 48 -90 48 -14 -1 -37 -8 -52 -16z"/>
<path d="M4218 5315 c-16 -9 -39 -40 -59 -81 -28 -57 -33 -78 -34 -143 0 -68
4 -84 37 -151 46 -94 136 -194 231 -258 57 -37 112 -61 248 -106 194 -65 234
-71 276 -40 50 37 66 78 68 168 1 44 -2 88 -6 96 -4 8 -18 38 -30 65 -28 63
-192 228 -287 289 -92 59 -217 121 -306 151 -85 29 -101 30 -138 10z"/>
<path d="M8593 5308 c-29 -14 -29 -23 -1 -42 29 -21 41 -20 69 4 24 20 24 20
5 35 -23 17 -42 18 -73 3z"/>
<path d="M9644 5299 c-9 -15 12 -33 30 -26 9 4 16 13 16 22 0 17 -35 21 -46 4z"/>
<path d="M8368 5096 c-24 -18 -22 -31 6 -44 20 -9 29 -8 48 7 19 16 20 21 9
35 -16 19 -40 20 -63 2z"/>
<path d="M8128 4969 c-39 -22 -12 -60 28 -38 28 14 31 34 8 43 -19 7 -15 8
-36 -5z"/>
<path d="M3437 4812 c-9 -10 -30 -47 -46 -84 -28 -61 -78 -118 -103 -118 -6 0
-26 -11 -44 -25 -25 -19 -38 -41 -50 -82 -41 -140 26 -347 193 -595 100 -149
330 -427 447 -541 185 -179 402 -320 512 -333 44 -6 54 -3 81 20 56 47 84 163
64 268 -14 77 -70 224 -112 293 -65 110 -178 195 -255 195 -64 0 -68 -7 -61
-103 7 -85 3 -117 -14 -117 -22 0 -109 64 -176 132 -134 132 -214 276 -217
390 -2 79 11 90 71 58 48 -25 161 -136 235 -230 48 -61 130 -110 183 -110 18
0 44 9 59 21 22 17 26 28 26 70 0 135 -126 362 -339 611 -196 229 -392 349
-454 280z"/>
<path d="M4642 4260 c-40 -24 -71 -89 -72 -146 0 -105 65 -239 170 -345 90
-91 163 -130 298 -159 145 -32 210 -71 467 -280 115 -93 115 -93 95 43 -34
235 -203 522 -399 679 -106 85 -274 185 -351 209 -82 25 -165 25 -208 -1z"/>
<path d="M3324 3364 c-16 -24 -17 -34 -5 -113 54 -374 318 -734 806 -1096 241
-180 608 -419 1080 -705 149 -90 323 -199 388 -243 65 -43 120 -77 122 -75 2
2 -69 71 -158 153 -692 643 -843 805 -952 1016 -67 132 -103 186 -184 278 -91
103 -174 169 -396 318 -119 80 -224 161 -310 239 -150 135 -233 199 -290 224
-75 33 -82 33 -101 4z"/>
<path d="M4972 3355 c-40 -18 -66 -72 -56 -119 18 -86 100 -193 216 -283 136
-104 243 -133 288 -76 29 37 22 84 -31 191 -91 187 -308 336 -417 287z"/>
<path d="M5725 2861 c-40 -17 -48 -37 -43 -106 10 -118 99 -271 232 -395 145
-136 248 -244 295 -310 l46 -65 3 90 c7 224 -87 456 -252 621 -130 129 -228
187 -281 165z"/>
<path d="M4968 2648 c-19 -6 -32 -23 -44 -54 -46 -120 35 -334 213 -556 70
-89 123 -141 273 -268 146 -124 471 -447 574 -570 44 -52 108 -139 143 -192
68 -103 178 -323 212 -423 l20 -60 1 90 c1 265 -66 543 -200 835 -150 327
-338 613 -549 833 -157 163 -280 247 -481 329 -105 43 -128 48 -162 36z"/>
</g>
</svg>
